<svg width="1440" height="1024" viewBox="0 0 1440 1024" fill="none" xmlns="http://www.w3.org/2000/svg">
<g opacity="0.3">
<path d="M-266 1165.34L1502.03 -20.4473L1509.99 -7.46593L-258.043 1178.32L-266 1165.34Z" fill="white"/>
<path d="M-254.089 1176.33L1513.94 -9.46099L1535.59 25.8545L-232.444 1211.64L-254.089 1176.33Z" fill="#00D97E"/>
<path d="M-145.998 1152.79L1622.03 -33L1629.99 -20.0186L-138.042 1165.77L-145.998 1152.79Z" fill="white"/>
<path d="M516.012 1169.52L2284.04 -16.2627L2292 -3.28127L523.969 1182.51L516.012 1169.52Z" fill="white"/>
<path d="M550.013 1210.32L2318.04 24.5343L2326 37.5157L557.969 1223.3L550.013 1210.32Z" fill="white"/>
<path d="M96.4799 1467.97L1864.51 282.182L1884.76 315.214L116.726 1501L96.4799 1467.97Z" fill="#00D97E"/>
</g>
</svg>
