<svg width="125" height="125" viewBox="0 0 125 125" fill="none" xmlns="http://www.w3.org/2000/svg">
<path d="M101.562 80.5241V44.4759C101.559 43.9552 101.404 43.4445 101.111 42.9952C100.818 42.5458 100.398 42.1739 99.8942 41.9167L64.0869 23.8196C63.6044 23.5693 63.0571 23.4375 62.5 23.4375C61.9429 23.4375 61.3956 23.5693 60.9131 23.8196L25.1058 41.9167C24.6018 42.1739 24.1823 42.5458 23.8894 42.9952C23.5965 43.4445 23.4406 43.9552 23.4375 44.4759V80.5241C23.4406 81.0448 23.5965 81.5555 23.8894 82.0048C24.1823 82.4542 24.6018 82.8261 25.1058 83.0833L60.9131 101.18C61.3956 101.431 61.9429 101.562 62.5 101.562C63.0571 101.562 63.6044 101.431 64.0869 101.18L99.8942 83.0833C100.398 82.8261 100.818 82.4542 101.111 82.0048C101.404 81.5555 101.559 81.0448 101.562 80.5241Z" fill="#00FF94"/>
<path d="M101.115 42.977L62.8662 62.5L23.8851 42.977" fill="#00FF94"/>
<path d="M82.4381 33.0692L62.5 43.1598L42.5618 33.0692" fill="#00FF94"/>
<path d="M82.0312 92.1136V71.969L101.562 62.0978" fill="#00FF94"/>
<path d="M42.9688 92.1136V71.969L23.4375 62.0978" fill="#00FF94"/>
<path d="M101.115 42.977L62.8662 62.5M62.8662 62.5L23.8851 42.977M62.8662 62.5L62.5 101.546M82.4381 33.0692L62.5 43.1598L42.5618 33.0692M82.0312 92.1136V71.969L101.562 62.0978M42.9688 92.1136V71.969L23.4375 62.0978M101.562 80.5241V44.4759C101.559 43.9552 101.404 43.4445 101.111 42.9952C100.818 42.5458 100.398 42.1739 99.8942 41.9167L64.0869 23.8196C63.6044 23.5693 63.0571 23.4375 62.5 23.4375C61.9429 23.4375 61.3956 23.5693 60.9131 23.8196L25.1058 41.9167C24.6018 42.1739 24.1823 42.5458 23.8894 42.9952C23.5965 43.4445 23.4406 43.9552 23.4375 44.4759V80.5241C23.4406 81.0448 23.5965 81.5555 23.8894 82.0048C24.1823 82.4542 24.6018 82.8261 25.1058 83.0833L60.9131 101.18C61.3956 101.431 61.9429 101.563 62.5 101.562C63.0571 101.563 63.6044 101.431 64.0869 101.18L99.8942 83.0833C100.398 82.8261 100.818 82.4542 101.111 82.0048C101.404 81.5555 101.559 81.0448 101.562 80.5241Z" stroke="black" stroke-width="2" stroke-linecap="round" stroke-linejoin="round"/>
</svg>
